Coordinates
version=1
nRows=18
nColumns=26
inDegrees=yes

Units are S.I. units (second, meters, Newtons, ...)
Angles are in degrees.

endheader
time	pelvis_tilt	pelvis_list	pelvis_rotation	pelvis_tx	pelvis_ty	pelvis_tz	hip_flexion_r	hip_adduction_r	hip_rotation_r	knee_angle_r	knee_angle_r_beta	ankle_angle_r	subtalar_angle_r	mtp_angle_r	hip_flexion_l	hip_adduction_l	hip_rotation_l	knee_angle_l	knee_angle_l_beta	ankle_angle_l	subtalar_angle_l	mtp_angle_l	lumbar_extension	lumbar_bending	lumbar_rotation
      0.00000000	      4.60167467	     -4.31763377	     -4.25898704	      0.05321347	      0.98356948	      0.18729673	    -19.95933745	      5.33250155	      3.25702079	      7.53169785	      7.53169785	     11.25387857	      0.00000000	      0.00000000	     22.02939528	     -6.80553979	    -15.44519309	     12.59566049	     12.59566049	     -2.52716204	      0.00000000	      0.00000000	    -19.78572907	      3.89014161	      8.47572015
      0.00833333	      4.73860313	     -4.28099845	     -4.62715715	      0.06365370	      0.98306182	      0.18725136	    -20.42853984	      5.05680048	      3.34807105	      8.15365042	      8.15365042	     11.24006737	      0.00000000	      0.00000000	     21.53978929	     -6.64760426	    -15.13011631	     13.07284283	     13.07284283	     -2.77272330	      0.00000000	      0.00000000	    -19.85682181	      3.57936860	      8.79979964
      0.01666667	      4.84406777	     -4.22765687	     -5.00009286	      0.07421330	      0.98265955	      0.18720360	    -20.80017765	      4.75195781	      3.42661535	      8.87493261	      8.87493261	     11.16622861	      0.00000000	      0.00000000	     21.01288424	     -6.45667562	    -14.72281324	     13.29810866	     13.29810866	     -3.39520430	      0.00000000	      0.00000000	    -19.85294217	      3.24246214	      9.05324462
      0.02500000	      4.86856197	     -4.21583156	     -5.31591623	      0.08478706	      0.98225105	      0.18700898	    -20.99291611	      4.49666789	      3.46080591	      9.75575851	      9.75575851	     11.02725370	      0.00000000	      0.00000000	     20.58964958	     -6.34212857	    -14.14493437	     13.58088689	     13.58088689	     -4.35923982	      0.00000000	      0.00000000	    -19.75211698	      2.97776084	      9.25279989
      0.03333333	      4.82934803	     -4.21755570	     -5.57641045	      0.09541884	      0.98195127	      0.18676166	    -21.00759983	      4.28715272	      3.41031991	     10.80628640	     10.80628640	     10.78315438	      0.00000000	      0.00000000	     20.20557005	     -6.24496306	    -13.60887562	     13.65543433	     13.65543433	     -5.68629617	      0.00000000	      0.00000000	    -19.57071229	      2.75609318	      9.36921531
      0.04166667	      4.81062281	     -4.25712841	     -5.81413028	      0.10608189	      0.98186094	      0.18659536	    -20.91563651	      4.11546531	      3.33135685	     12.09827052	     12.09827052	     10.41419562	      0.00000000	      0.00000000	     19.85726044	     -6.28939036	    -13.29906115	     13.97762490	     13.97762490	     -6.62738300	      0.00000000	      0.00000000	    -19.40216830	      2.56177705	      9.44065244
      0.05000000	      4.78650392	     -4.30967046	     -6.00033751	      0.11685827	      0.98189432	      0.18645662	    -20.72558511	      3.96479889	      3.18954717	     13.50027791	     13.50027791	      9.97022487	      0.00000000	      0.00000000	     19.56346918	     -6.41299440	    -13.12321518	     14.55329222	     14.55329222	     -6.80846763	      0.00000000	      0.00000000	    -19.21323044	      2.38531839	      9.47918098
      0.05833333	      4.81150369	     -4.25040778	     -6.09535758	      0.12747523	      0.98231054	      0.18614000	    -20.39562671	      3.70542002	      2.89288727	     15.22830403	     15.22830403	      9.59727339	      0.00000000	      0.00000000	     19.30638035	     -6.40853135	    -12.84704271	     15.37963981	     15.37963981	     -6.43298864	      0.00000000	      0.00000000	    -19.09122985	      2.09720770	      9.36727859
      0.06666667	      4.83695319	     -4.06781860	     -6.11103584	      0.13795511	      0.98308484	      0.18562232	    -19.86175421	      3.32642012	      2.50975029	     17.24775272	     17.24775272	      9.01315653	      0.00000000	      0.00000000	     19.05401407	     -6.19535593	    -12.49388724	     16.28310797	     16.28310797	     -5.42319295	      0.00000000	      0.00000000	    -18.97882547	      1.69905264	      9.17711551
      0.07500000	      4.85046929	     -3.83501473	     -6.02330167	      0.14823576	      0.98420030	      0.18502501	    -19.12290007	      2.91281440	      2.00278272	     19.51634428	     19.51634428	      8.25725937	      0.00000000	      0.00000000	     19.00928942	     -5.95020420	    -12.18722544	     17.54631305	     17.54631305	     -4.30908460	      0.00000000	      0.00000000	    -18.87374565	      1.26067065	      8.89143808
      0.08333333	      4.92087614	     -3.54210322	     -5.90037202	      0.15843898	      0.98561372	      0.18441400	    -18.24975861	      2.41514600	      1.49657080	     22.08370329	     22.08370329	      7.27695528	      0.00000000	      0.00000000	     18.91125496	     -5.62871197	    -11.88869965	     18.82089522	     18.82089522	     -3.16748688	      0.00000000	      0.00000000	    -18.85698925	      0.75343360	      8.58083461
      0.09166667	      5.07886779	     -3.30957231	     -5.76938037	      0.16861524	      0.98729292	      0.18370671	    -17.34940883	      1.94571072	      1.08901302	     24.75467051	     24.75467051	      6.02991637	      0.00000000	      0.00000000	     18.57605362	     -5.33223326	    -11.52643303	     19.82717083	     19.82717083	     -2.15762062	      0.00000000	      0.00000000	    -18.95731156	      0.32755312	      8.34449390
      0.10000000	      5.33033410	     -3.06933049	     -5.62813253	      0.17880585	      0.98916793	      0.18281706	    -16.38869482	      1.42082400	      0.66716974	     27.65089520	     27.65089520	      4.61510268	      0.00000000	      0.00000000	     17.95561073	     -4.94413571	    -11.22046430	     20.42857584	     20.42857584	     -1.35337877	      0.00000000	      0.00000000	    -19.16395431	     -0.07546658	      8.13712878
      0.10833333	      5.61742437	     -2.82402830	     -5.36286203	      0.18909724	      0.99100724	      0.18153053	    -15.36599622	      0.88430015	      0.17032779	     30.66036778	     30.66036778	      2.94653037	      0.00000000	      0.00000000	     17.11849926	     -4.43896861	    -10.94650296	     20.61335047	     20.61335047	     -0.69253256	      0.00000000	      0.00000000	    -19.39173617	     -0.40383052	      7.82898220
      0.11666667	      5.88192954	     -2.56049986	     -5.27193150	      0.19921820	      0.99276213	      0.18054930	    -14.17019551	      0.26257106	     -0.10770872	     33.82739390	     33.82739390	      1.18240540	      0.00000000	      0.00000000	     16.11502983	     -3.95781494	    -11.04706294	     20.47513124	     20.47513124	     -0.10010221	      0.00000000	      0.00000000	    -19.58812331	     -0.78768411	      7.66576980
      0.12500000	      6.10285133	     -2.28409123	     -5.17681210	      0.20930335	      0.99440172	      0.17946128	    -12.83688239	     -0.36611928	     -0.33387450	     37.05253208	     37.05253208	     -0.75173777	      0.00000000	      0.00000000	     15.15038279	     -3.47809903	    -11.25704340	     20.36940542	     20.36940542	      0.55558466	      0.00000000	      0.00000000	    -19.71667502	     -1.13820383	      7.47105922
      0.13333333	      6.25235107	     -2.01224349	     -5.12480969	      0.21921611	      0.99598484	      0.17854426	    -11.35637865	     -0.97102240	     -0.40824468	     40.25604678	     40.25604678	     -2.70359659	      0.00000000	      0.00000000	     14.17218346	     -2.98217490	    -11.44708635	     20.04258511	     20.04258511	      1.10131293	      0.00000000	      0.00000000	    -19.75587503	     -1.48531372	      7.29367816
      0.14166667	      6.39277786	     -1.75232668	     -5.05808710	      0.22899143	      0.99757328	      0.17762752	     -9.89492900	     -1.49723963	     -0.36870863	     43.30179881	     43.30179881	     -4.46741125	      0.00000000	      0.00000000	     13.20461352	     -2.50505839	    -11.64991008	     19.68168734	     19.68168734	      1.56038568	      0.00000000	      0.00000000	    -19.78308454	     -1.79447302	      7.07352746
